<svg width="98" height="30" viewBox="0 0 98 30" fill="none" xmlns="http://www.w3.org/2000/svg">
<path d="M28.8849 14.8182H31.5398L34.3438 21.6591H34.4631L37.267 14.8182H39.9219V25H37.8338V18.3729H37.7493L35.1143 24.9503H33.6925L31.0575 18.348H30.973V25H28.8849V14.8182ZM43.8333 25.1442C43.3461 25.1442 42.9119 25.0597 42.5307 24.8906C42.1496 24.7183 41.848 24.4647 41.6259 24.13C41.4071 23.7919 41.2978 23.371 41.2978 22.8672C41.2978 22.4429 41.3757 22.0866 41.5314 21.7983C41.6872 21.5099 41.8993 21.2779 42.1678 21.1023C42.4363 20.9266 42.7412 20.794 43.0826 20.7045C43.4273 20.6151 43.7885 20.5521 44.1664 20.5156C44.6105 20.4692 44.9685 20.4261 45.2402 20.3864C45.512 20.3433 45.7092 20.2803 45.8319 20.1974C45.9545 20.1146 46.0158 19.992 46.0158 19.8295V19.7997C46.0158 19.4848 45.9164 19.2412 45.7175 19.0689C45.522 18.8965 45.2435 18.8104 44.8823 18.8104C44.5011 18.8104 44.1979 18.8949 43.9725 19.0639C43.7471 19.2296 43.598 19.4384 43.525 19.6903L41.5662 19.5312C41.6657 19.0672 41.8612 18.6662 42.1529 18.3281C42.4445 17.9867 42.8207 17.7249 43.2814 17.5426C43.7454 17.357 44.2824 17.2642 44.8922 17.2642C45.3165 17.2642 45.7225 17.3139 46.1103 17.4134C46.5014 17.5128 46.8477 17.6669 47.1493 17.8757C47.4542 18.0845 47.6945 18.353 47.8702 18.6811C48.0459 19.0059 48.1337 19.3954 48.1337 19.8494V25H46.1252V23.9411H46.0655C45.9429 24.1797 45.7788 24.3902 45.5733 24.5724C45.3678 24.7514 45.1209 24.8923 44.8326 24.995C44.5442 25.0945 44.2111 25.1442 43.8333 25.1442ZM44.4398 23.6825C44.7514 23.6825 45.0265 23.6212 45.2651 23.4986C45.5037 23.3726 45.691 23.2036 45.8269 22.9915C45.9628 22.7794 46.0307 22.5391 46.0307 22.2706V21.4602C45.9644 21.5033 45.8733 21.5431 45.7573 21.5795C45.6446 21.6127 45.517 21.6442 45.3745 21.674C45.2319 21.7005 45.0894 21.7254 44.9469 21.7486C44.8044 21.7685 44.6751 21.7867 44.5591 21.8033C44.3105 21.8397 44.0935 21.8977 43.9078 21.9773C43.7222 22.0568 43.5781 22.1645 43.4753 22.3004C43.3726 22.433 43.3212 22.5987 43.3212 22.7976C43.3212 23.0859 43.4256 23.3063 43.6344 23.4588C43.8465 23.608 44.115 23.6825 44.4398 23.6825ZM51.8947 20.5852V25H49.7768V17.3636H51.7953V18.7109H51.8848C52.0538 18.2668 52.3372 17.9155 52.7349 17.657C53.1326 17.3951 53.6149 17.2642 54.1816 17.2642C54.7119 17.2642 55.1743 17.3802 55.5687 17.6122C55.9631 17.8442 56.2697 18.1757 56.4885 18.6065C56.7072 19.0341 56.8166 19.5445 56.8166 20.1378V25H54.6987V20.5156C54.702 20.0483 54.5827 19.6837 54.3407 19.4219C54.0988 19.1567 53.7657 19.0241 53.3414 19.0241C53.0564 19.0241 52.8045 19.0855 52.5858 19.2081C52.3703 19.3307 52.2013 19.5097 52.0787 19.745C51.9593 19.977 51.898 20.2571 51.8947 20.5852ZM61.9261 28.0227C61.2401 28.0227 60.6518 27.9283 60.1612 27.7393C59.674 27.5537 59.2862 27.3002 58.9979 26.9787C58.7095 26.6572 58.5223 26.2959 58.4361 25.8949L60.3949 25.6314C60.4545 25.7839 60.549 25.9264 60.6783 26.0589C60.8075 26.1915 60.9782 26.2976 61.1903 26.3771C61.4058 26.46 61.6676 26.5014 61.9759 26.5014C62.4366 26.5014 62.8161 26.3887 63.1143 26.1634C63.416 25.9413 63.5668 25.5684 63.5668 25.0447V23.6477H63.4773C63.3845 23.8598 63.2453 24.0604 63.0597 24.2493C62.8741 24.4382 62.6354 24.5923 62.3438 24.7116C62.0521 24.831 61.7041 24.8906 61.2997 24.8906C60.7263 24.8906 60.2043 24.758 59.7337 24.4929C59.2663 24.2244 58.8935 23.8151 58.6151 23.2649C58.34 22.7114 58.2024 22.0121 58.2024 21.1669C58.2024 20.3018 58.3433 19.5793 58.625 18.9993C58.9067 18.4193 59.2813 17.9851 59.7486 17.6967C60.2192 17.4084 60.7346 17.2642 61.2947 17.2642C61.7223 17.2642 62.0803 17.3371 62.3686 17.483C62.657 17.6255 62.889 17.8045 63.0646 18.0199C63.2436 18.232 63.3812 18.4408 63.4773 18.6463H63.5568V17.3636H65.6598V25.0746C65.6598 25.7242 65.5007 26.2678 65.1825 26.7053C64.8643 27.1428 64.4235 27.4709 63.8601 27.6896C63.3 27.9117 62.6553 28.0227 61.9261 28.0227ZM61.9709 23.2997C62.3123 23.2997 62.6006 23.2152 62.8359 23.0462C63.0746 22.8738 63.2569 22.6286 63.3828 22.3104C63.5121 21.9889 63.5767 21.6044 63.5767 21.157C63.5767 20.7095 63.5137 20.3217 63.3878 19.9936C63.2618 19.6622 63.0795 19.4053 62.8409 19.223C62.6023 19.0407 62.3123 18.9496 61.9709 18.9496C61.6229 18.9496 61.3295 19.044 61.0909 19.233C60.8523 19.4186 60.6716 19.6771 60.549 20.0085C60.4264 20.34 60.3651 20.7228 60.3651 21.157C60.3651 21.5978 60.4264 21.9789 60.549 22.3004C60.675 22.6186 60.8556 22.8655 61.0909 23.0412C61.3295 23.2135 61.6229 23.2997 61.9709 23.2997ZM69.5227 25.1442C69.0355 25.1442 68.6013 25.0597 68.2202 24.8906C67.839 24.7183 67.5374 24.4647 67.3153 24.13C67.0966 23.7919 66.9872 23.371 66.9872 22.8672C66.9872 22.4429 67.0651 22.0866 67.2209 21.7983C67.3767 21.5099 67.5888 21.2779 67.8572 21.1023C68.1257 20.9266 68.4306 20.794 68.772 20.7045C69.1167 20.6151 69.478 20.5521 69.8558 20.5156C70.3 20.4692 70.6579 20.4261 70.9297 20.3864C71.2015 20.3433 71.3987 20.2803 71.5213 20.1974C71.6439 20.1146 71.7053 19.992 71.7053 19.8295V19.7997C71.7053 19.4848 71.6058 19.2412 71.407 19.0689C71.2114 18.8965 70.933 18.8104 70.5717 18.8104C70.1906 18.8104 69.8873 18.8949 69.6619 19.0639C69.4366 19.2296 69.2874 19.4384 69.2145 19.6903L67.2557 19.5312C67.3551 19.0672 67.5507 18.6662 67.8423 18.3281C68.134 17.9867 68.5102 17.7249 68.9709 17.5426C69.4349 17.357 69.9718 17.2642 70.5817 17.2642C71.0059 17.2642 71.4119 17.3139 71.7997 17.4134C72.1908 17.5128 72.5372 17.6669 72.8388 17.8757C73.1437 18.0845 73.384 18.353 73.5597 18.6811C73.7353 19.0059 73.8232 19.3954 73.8232 19.8494V25H71.8146V23.9411H71.755C71.6323 24.1797 71.4683 24.3902 71.2628 24.5724C71.0573 24.7514 70.8104 24.8923 70.522 24.995C70.2337 25.0945 69.9006 25.1442 69.5227 25.1442ZM70.1293 23.6825C70.4408 23.6825 70.7159 23.6212 70.9545 23.4986C71.1932 23.3726 71.3804 23.2036 71.5163 22.9915C71.6522 22.7794 71.7202 22.5391 71.7202 22.2706V21.4602C71.6539 21.5033 71.5627 21.5431 71.4467 21.5795C71.334 21.6127 71.2064 21.6442 71.0639 21.674C70.9214 21.7005 70.7789 21.7254 70.6364 21.7486C70.4938 21.7685 70.3646 21.7867 70.2486 21.8033C70 21.8397 69.7829 21.8977 69.5973 21.9773C69.4117 22.0568 69.2675 22.1645 69.1648 22.3004C69.062 22.433 69.0107 22.5987 69.0107 22.7976C69.0107 23.0859 69.1151 23.3063 69.3239 23.4588C69.536 23.608 69.8045 23.6825 70.1293 23.6825Z" fill="#FF0000"/>
<path d="M79.1154 25H75.506V14.8182H79.1452C80.1694 14.8182 81.051 15.022 81.7901 15.4297C82.5292 15.834 83.0977 16.4157 83.4954 17.1747C83.8964 17.9337 84.0969 18.8419 84.0969 19.8991C84.0969 20.9598 83.8964 21.8712 83.4954 22.6335C83.0977 23.3958 82.5259 23.9808 81.7802 24.3885C81.0378 24.7962 80.1495 25 79.1154 25ZM77.6587 23.1555H79.0259C79.6623 23.1555 80.1976 23.0429 80.6317 22.8175C81.0692 22.5888 81.3974 22.2358 81.6161 21.7585C81.8382 21.2779 81.9492 20.6581 81.9492 19.8991C81.9492 19.1468 81.8382 18.532 81.6161 18.0547C81.3974 17.5774 81.0709 17.2261 80.6367 17.0007C80.2025 16.7753 79.6673 16.6626 79.0309 16.6626H77.6587V23.1555ZM85.6916 25V14.8182H89.7683C90.5173 14.8182 91.1421 14.9292 91.6426 15.1513C92.1431 15.3733 92.5192 15.6816 92.7711 16.076C93.023 16.4671 93.149 16.9179 93.149 17.4283C93.149 17.826 93.0694 18.1757 92.9103 18.4773C92.7512 18.7756 92.5325 19.0208 92.2541 19.2131C91.979 19.402 91.6641 19.5362 91.3095 19.6158V19.7152C91.6973 19.7318 92.0602 19.8411 92.3983 20.0433C92.7396 20.2455 93.0164 20.5289 93.2285 20.8935C93.4406 21.2547 93.5467 21.6856 93.5467 22.1861C93.5467 22.7263 93.4125 23.2086 93.144 23.6328C92.8788 24.0537 92.4861 24.3868 91.9657 24.6321C91.4454 24.8774 90.804 25 90.0417 25H85.6916ZM87.8443 23.2401H89.5993C90.1992 23.2401 90.6367 23.1257 90.9118 22.897C91.1868 22.665 91.3244 22.3568 91.3244 21.9723C91.3244 21.6906 91.2565 21.442 91.1206 21.2266C90.9847 21.0111 90.7908 20.8421 90.5389 20.7195C90.2903 20.5968 89.9937 20.5355 89.649 20.5355H87.8443V23.2401ZM87.8443 19.0788H89.4402C89.7351 19.0788 89.997 19.0275 90.2257 18.9247C90.4577 18.8187 90.64 18.6695 90.7725 18.4773C90.9084 18.285 90.9764 18.0547 90.9764 17.7862C90.9764 17.4183 90.8455 17.1217 90.5836 16.8963C90.3251 16.6709 89.9572 16.5582 89.4799 16.5582H87.8443V19.0788Z" fill="black"/>
<mask id="mask0_1_21" style="mask-type:luminance" maskUnits="userSpaceOnUse" x="3" y="1" width="22" height="28">
<path d="M3.73102 1.80359H24.2662V28.2001H3.73102V1.80359Z" fill="white"/>
</mask>
<g mask="url(#mask0_1_21)">
<path d="M13.9986 1.80359C8.24445 1.80359 3.73615 3.97797 3.73615 6.75293V23.2507C3.73615 26.0257 8.24445 28.2001 13.9986 28.2001C19.7527 28.2001 24.261 26.0257 24.261 23.2507V6.75293C24.261 3.97797 19.7527 1.80359 13.9986 1.80359ZM23.2348 17.7515C23.2348 19.5717 19.4419 21.601 13.9986 21.601C8.55548 21.601 4.76239 19.5717 4.76239 17.7515V14.4321C6.40743 16.0841 9.87823 17.2015 13.9986 17.2015C18.119 17.2015 21.5898 16.0841 23.2348 14.4321V17.7515ZM23.2348 12.2522C23.2348 14.0724 19.4419 16.1017 13.9986 16.1017C8.55548 16.1017 4.76239 14.0724 4.76239 12.2522V8.9328C6.40743 10.5849 9.87823 11.7023 13.9986 11.7023C18.119 11.7023 21.5898 10.5849 23.2348 8.9328V12.2522ZM13.9986 2.90344C19.4419 2.90344 23.2348 4.93271 23.2348 6.75293C23.2348 8.57315 19.4419 10.6024 13.9986 10.6024C8.55548 10.6024 4.76239 8.57315 4.76239 6.75293C4.76239 4.93271 8.55548 2.90344 13.9986 2.90344ZM13.9986 27.1002C8.55548 27.1002 4.76239 25.071 4.76239 23.2507V19.9313C6.40743 21.5834 9.87823 22.7008 13.9986 22.7008C18.119 22.7008 21.5898 21.5834 23.2348 19.9313V23.2507C23.2348 25.071 19.4419 27.1002 13.9986 27.1002Z" fill="#F20909"/>
</g>
</svg>
