<svg width="20" height="20" viewBox="0 0 20 20" fill="none" xmlns="http://www.w3.org/2000/svg">
<g clip-path="url(#clip0_1_27)">
<path d="M14.4099 1.66561C13.3163 0.590769 11.8622 0 10.3161 0C8.76897 0 7.31498 0.590769 6.22083 1.66561C5.12653 2.73934 4.52413 4.1685 4.52413 5.68823C4.52413 7.00914 4.98119 8.26045 5.81866 9.27134L4.70074 10.3694L4.44607 10.1192L1.05499 13.4492L2.41232 14.7825L5.80253 11.4525L5.54886 11.2024L6.66665 10.1044C7.69598 10.928 8.96977 11.3759 10.3146 11.3759C11.8617 11.3759 13.3157 10.7841 14.4099 9.70944C16.6682 7.49168 16.6682 3.88324 14.4099 1.66561ZM13.7849 9.09447C12.8578 10.005 11.6262 10.5058 10.3146 10.5058C9.00404 10.5058 7.77247 10.0045 6.84541 9.09447C5.91934 8.18474 5.409 6.97505 5.409 5.68766C5.409 4.40042 5.91934 3.18974 6.84583 2.28002C7.77189 1.36945 9.00347 0.868679 10.3151 0.868679C11.6256 0.868679 12.8572 1.37002 13.7843 2.28002C15.697 4.15958 15.697 7.21674 13.7849 9.09447Z" fill="black"/>
<path d="M10.3151 1.51675C9.18064 1.51675 8.11515 1.9513 7.31297 2.73833C7.19212 2.85706 7.19212 3.05035 7.31297 3.16893C7.43368 3.28764 7.63044 3.28764 7.75129 3.16893C8.43623 2.49609 9.34673 2.12635 10.3151 2.12635C11.2844 2.12635 12.1943 2.49609 12.8798 3.16893C12.9398 3.22879 13.0193 3.25793 13.0994 3.25793C13.1779 3.25793 13.2574 3.22879 13.3187 3.16893C13.4396 3.05035 13.4396 2.85706 13.3187 2.73833C12.516 1.9513 11.4495 1.51675 10.3151 1.51675Z" fill="black"/>
<path d="M0.259711 14.2314C-0.0865702 14.5705 -0.0865702 15.1218 0.259711 15.4604L0.364864 15.5647C0.711144 15.9038 1.27133 15.9038 1.61703 15.5647L2.08317 15.1069L0.725692 13.7735L0.259711 14.2314Z" fill="black"/>
</g>
<defs>
<clipPath id="clip0_1_27">
<rect width="20" height="20" fill="white"/>
</clipPath>
</defs>
</svg>
